<svg preserveAspectRatio="xMidYMid meet" viewBox="268.288 51.2 495.616 917.504" xmlns="http://www.w3.org/2000/svg" version="1.0" style="max-height: 500px" width="495.616" height="917.504">

<g stroke="none" fill="white" transform="translate(0.000000,1024.000000) scale(0.100000,-0.100000)">
<path d="M4973 9570 c-280 -20 -593 -126 -834 -282 -496 -320 -828 -816 -895&#10;-1339 -29 -231 -5 -562 56 -769 45 -151 115 -306 185 -414 17 -25 16 -25 -27&#10;-36 -24 -6 -53 -18 -65 -26 -34 -22 -66 -92 -66 -144 0 -55 34 -126 71 -147&#10;l27 -15 -3 -364 -2 -363 -33 -20 c-17 -11 -48 -37 -68 -58 -43 -46 -112 -143&#10;-106 -149 3 -3 53 27 113 66 60 38 115 70 123 70 7 0 38 -14 69 -32 30 -17 72&#10;-34 94 -38 l38 -7 -22 36 c-12 20 -36 54 -54 76 l-33 41 -3 367 -3 367 29 6&#10;c16 3 49 28 74 54 l45 48 30 -46 c38 -60 128 -149 249 -246 l98 -78 2 -201 3&#10;-202 45 0 45 0 6 70 c4 39 7 112 8 163 0 52 4 92 9 90 4 -1 68 -33 143 -70&#10;l136 -67 6 -158 c4 -87 7 -204 7 -260 l0 -103 48 0 49 0 6 137 c4 75 7 183 7&#10;240 0 56 2 103 5 103 3 0 37 -9 77 -20 86 -23 246 -46 378 -56 145 -10 424 20&#10;564 62 27 8 56 14 63 14 10 0 13 -47 13 -235 l0 -235 55 0 55 0 0 214 c0 231&#10;6 306 25 306 15 0 181 82 220 109 17 12 33 21 38 21 4 0 7 -72 7 -159 l0 -159&#10;51 -4 c28 -1 52 -1 54 2 2 3 7 94 11 202 l7 198 76 62 c110 90 197 175 248&#10;241 l45 58 46 -43 c26 -24 61 -49 78 -56 31 -13 31 -13 22 -65 -5 -29 -8 -192&#10;-6 -364 l3 -312 -47 -44 c-25 -25 -51 -54 -57 -66 -11 -20 -9 -21 24 -21 25 0&#10;48 9 75 31 38 31 40 31 89 19 27 -6 73 -27 102 -45 30 -18 57 -31 62 -28 4 3&#10;16 -2 25 -9 29 -25 46 -33 37 -17 -38 64 -76 113 -130 164 l-62 60 -5 320 c-3&#10;176 -9 328 -13 338 -4 10 -18 17 -34 18 -27 1 -23 4 21 13 66 15 118 91 118&#10;173 0 86 -54 157 -130 169 l-38 6 35 56 c100 155 182 384 219 607 28 167 26&#10;470 -4 628 -66 347 -213 640 -468 931 -215 247 -582 473 -908 561 -183 49&#10;-439 71 -653 55z m111 -202 c-3 -18 -19 -60 -35 -93 -36 -76 -174 -424 -205&#10;-513 -3 -9 -21 2 -57 35 -29 26 -146 124 -260 216 -114 93 -207 172 -207 176&#10;0 13 146 76 263 115 148 48 298 77 495 95 10 1 12 -7 6 -31z m288 7 c152 -23&#10;292 -62 438 -122 74 -31 137 -57 138 -59 8 -6 -15 -34 -55 -66 -23 -18 -92&#10;-73 -153 -123 -62 -49 -159 -127 -215 -172 l-103 -82 -50 127 c-27 70 -71 190&#10;-96 267 -26 77 -53 154 -60 170 -33 71 -32 75 16 75 24 0 87 -7 140 -15z&#10;m-216 -227 c9 -29 43 -114 74 -188 70 -165 100 -245 100 -267 0 -9 -37 -55&#10;-83 -102 -46 -47 -91 -97 -100 -110 -9 -14 -18 -23 -20 -20 -3 5 -150 172&#10;-184 210 l-23 25 19 55 c11 30 46 113 79 184 32 72 69 160 82 198 13 37 27 67&#10;31 67 4 0 15 -24 25 -52z m-932 -75 c10 -70 52 -295 87 -466 17 -82 28 -151&#10;25 -154 -5 -6 -629 143 -649 154 -19 11 213 267 325 359 39 33 98 82 132 111&#10;33 28 64 49 67 47 4 -2 10 -25 13 -51z m1923 -20 c115 -89 294 -267 372 -370&#10;34 -46 61 -83 59 -84 -72 -18 -651 -139 -653 -137 -2 2 15 86 36 187 21 101&#10;46 239 54 305 20 150 23 166 35 166 5 0 49 -30 97 -67z m-1567 -213 c46 -36&#10;102 -81 125 -100 22 -19 53 -44 69 -56 l28 -20 -26 -81 c-14 -45 -31 -112 -37&#10;-150 -7 -37 -14 -70 -15 -71 -1 -2 -51 12 -111 31 -59 20 -121 38 -136 42 -15&#10;3 -29 11 -31 18 -7 22 -106 553 -106 565 0 6 35 -16 78 -51 43 -34 116 -91&#10;162 -127z m1330 93 c-12 -82 -89 -486 -93 -488 -1 0 -38 -11 -82 -24 -44 -12&#10;-106 -33 -138 -46 l-57 -23 -6 27 c-14 63 -63 258 -69 272 -4 10 0 19 9 22 19&#10;7 326 246 390 304 27 24 51 42 53 39 3 -2 -1 -40 -7 -83z m-841 -545 c1 -5 -3&#10;-17 -11 -26 -8 -9 -27 -39 -43 -67 -15 -27 -29 -51 -30 -53 -1 -1 -39 16 -84&#10;40 -48 25 -81 48 -81 58 0 18 36 171 51 217 l10 32 92 -95 c51 -53 94 -101 96&#10;-106z m343 81 c15 -57 28 -114 28 -126 0 -16 -18 -34 -70 -68 -39 -25 -74 -45&#10;-78 -45 -9 0 -87 140 -87 157 0 18 158 194 170 190 5 -2 22 -50 37 -108z&#10;m-1690 -89 c46 -63 104 -144 128 -180 24 -36 70 -100 103 -143 32 -43 57 -80&#10;54 -83 -13 -14 -596 -208 -603 -201 -8 8 30 235 57 337 31 118 156 408 169&#10;393 4 -4 45 -60 92 -123z m2956 47 c75 -155 119 -290 151 -462 27 -144 27&#10;-175 1 -175 -38 0 -540 169 -563 189 -14 13 357 526 373 516 4 -3 21 -33 38&#10;-68z m-2686 -1 c103 -25 228 -53 278 -62 l90 -17 20 -71 c19 -65 47 -146 65&#10;-188 5 -13 1 -18 -17 -22 -75 -15 -321 -56 -323 -54 -1 2 -38 53 -81 114 -250&#10;353 -253 357 -232 349 7 -2 97 -25 200 -49z m2491 32 c-4 -7 -61 -87 -128&#10;-178 -66 -91 -136 -189 -155 -218 -27 -40 -40 -51 -55 -48 -134 29 -230 48&#10;-278 53 -48 5 -57 9 -51 22 25 60 63 174 73 217 l12 50 217 44 c119 24 237 49&#10;262 56 62 17 113 18 103 2z m-711 -209 c-16 -52 -36 -111 -45 -131 l-16 -38&#10;-88 0 -89 0 4 73 c2 39 4 78 5 86 2 12 245 113 255 105 2 -1 -10 -44 -26 -95z&#10;m-1203 56 c42 -14 95 -29 119 -35 l42 -11 0 -97 0 -97 -84 -2 -85 -2 -15 42&#10;c-28 80 -66 202 -66 215 0 16 1 16 89 -13z m601 -56 l35 -70 -25 -19 c-38 -29&#10;-56 -30 -94 -4 l-35 24 35 57 c19 31 34 63 34 70 0 30 18 9 50 -58z m-291 -66&#10;c49 -36 49 -38 38 -88 -10 -42 -11 -44 -41 -38 -17 3 -33 7 -35 9 -8 7 -13&#10;144 -6 144 5 0 24 -12 44 -27z m561 -2 c0 -15 -3 -49 -6 -75 -5 -35 -11 -46&#10;-24 -46 -20 0 -70 54 -70 75 0 13 75 74 93 75 4 0 7 -13 7 -29z m-398 -98 c26&#10;-23 22 -35 -9 -31 -20 2 -29 9 -31 26 -4 26 14 29 40 5z m227 -14 c10 -28 9&#10;-30 -12 -24 -12 4 -30 9 -40 12 -18 5 -18 6 -1 24 24 27 40 24 53 -12z m374&#10;-106 c-26 -43 -65 -83 -80 -83 -25 0 -72 30 -68 43 25 72 19 67 95 67 l70 0&#10;-17 -27z m-1128 -3 c4 -11 21 -40 40 -64 l33 -44 -41 -18 c-23 -10 -68 -33&#10;-99 -52 l-57 -34 -51 43 c-109 93 -140 122 -140 130 0 5 15 9 33 9 17 1 82 12&#10;142 24 138 30 132 30 140 6z m245 -9 c0 -16 2 -36 6 -44 4 -10 -6 -16 -37 -20&#10;-60 -8 -63 -6 -107 86 -2 4 28 7 67 7 l71 0 0 -29z m1155 4 c81 -13 149 -26&#10;151 -28 4 -4 -176 -168 -193 -174 -6 -2 -31 11 -55 29 -24 18 -62 42 -86 52&#10;-43 20 -52 35 -29 55 8 6 22 29 32 51 10 22 21 40 26 40 4 0 73 -11 154 -25z&#10;m-1027 -6 c4 -20 -28 -34 -39 -18 -11 18 1 40 20 37 9 -2 17 -10 19 -19z m522&#10;3 c0 -14 -11 -21 -26 -15 -21 8 -17 23 6 23 11 0 20 -4 20 -8z m-160 -58 c113&#10;-75 142 -220 64 -321 -35 -46 -114 -83 -179 -83 -65 0 -144 44 -182 101 -35&#10;52 -43 140 -19 203 47 123 207 174 316 100z m-1118 -45 c18 -23 65 -67 105&#10;-99 l72 -57 -52 -36 c-29 -20 -76 -61 -105 -90 l-54 -55 -274 92 c-150 50&#10;-272 95 -271 100 2 5 46 24 98 42 52 18 164 57 249 88 85 30 165 55 177 55 14&#10;1 34 -13 55 -40z m2208 -10 c80 -28 194 -66 254 -85 60 -18 114 -38 119 -43&#10;13 -13 -4 -20 -248 -104 -104 -36 -211 -75 -238 -86 l-48 -21 -35 40 c-20 22&#10;-68 63 -107 92 -40 28 -75 54 -80 58 -4 3 28 34 70 67 43 34 94 78 112 97 19&#10;20 40 36 45 36 6 0 76 -23 156 -51z m-800 -55 c0 -6 -8 -18 -18 -28 -18 -15&#10;-20 -15 -34 1 -9 10 -19 28 -22 39 -6 20 -5 21 34 11 22 -6 40 -16 40 -23z&#10;m-755 1 c0 -23 -34 -33 -46 -13 -17 26 -10 39 19 36 19 -2 27 -9 27 -23z&#10;m-135 -17 c0 -6 11 -26 25 -44 l26 -34 -33 -30 c-39 -35 -40 -35 -81 -13 -18&#10;9 -52 21 -77 28 l-44 11 84 47 c92 50 100 53 100 35z m1046 -24 c38 -19 73&#10;-39 77 -43 8 -8 -102 -71 -125 -71 -8 0 -27 13 -42 28 l-27 29 23 46 c13 25&#10;23 46 24 47 1 0 32 -16 70 -36z m-2008 -201 c108 -36 229 -77 269 -90 l72 -24&#10;-102 -128 c-56 -70 -151 -189 -210 -264 -59 -75 -111 -137 -115 -137 -13 0&#10;-101 233 -132 352 -28 106 -60 302 -60 369 l0 29 40 -20 c22 -11 129 -50 238&#10;-87z m2233 65 c25 -24 66 -61 93 -82 l48 -39 -38 -13 c-34 -11 -224 -48 -248&#10;-49 -5 0 -26 28 -47 61 l-37 62 43 16 c24 10 63 33 87 51 24 19 46 35 49 35 4&#10;0 26 -19 50 -42z m933 0 c-15 -136 -29 -215 -65 -346 -41 -149 -125 -365 -141&#10;-360 -15 5 -397 523 -390 529 4 4 66 26 137 49 143 47 407 144 433 160 28 16&#10;30 12 26 -32z m-2426 8 c20 -13 61 -35 90 -50 l52 -26 -30 -53 c-17 -30 -38&#10;-53 -49 -55 -22 -4 -235 33 -271 46 -21 8 -17 14 66 85 49 42 92 77 97 77 4 0&#10;24 -11 45 -24z m1112 -6 c0 -10 5 -22 10 -25 18 -11 0 -25 -31 -25 -34 0 -39&#10;22 -13 58 17 25 34 21 34 -8z m-780 -2 c0 -7 3 -24 7 -37 5 -21 3 -23 -18 -16&#10;-36 11 -40 19 -23 43 17 24 34 29 34 10z m-47 -119 c30 -10 37 -17 35 -33 -3&#10;-18 -12 -22 -66 -26 -34 -3 -62 -2 -62 1 0 22 33 80 43 75 7 -2 29 -10 50 -17z&#10;m920 -28 c9 -16 17 -32 17 -35 0 -3 -30 -6 -66 -6 l-65 0 3 33 c3 28 7 33 38&#10;37 46 8 53 5 73 -29z m-209 -7 c10 -26 7 -34 -13 -34 -23 0 -35 15 -27 35 7&#10;20 32 19 40 -1z m-1195 -78 c55 -13 125 -28 155 -31 31 -4 58 -10 60 -14 2 -3&#10;-17 -64 -43 -136 l-46 -130 -173 -32 c-95 -18 -198 -39 -227 -48 -30 -8 -76&#10;-20 -102 -25 -27 -5 -57 -12 -67 -16 -21 -8 -23 -12 78 126 67 90 257 329 263&#10;330 1 0 47 -11 102 -24z m1971 -39 c24 -34 79 -111 122 -172 43 -60 98 -136&#10;123 -167 24 -32 42 -58 38 -58 -4 0 -32 9 -62 19 -31 11 -135 36 -231 56 -96&#10;20 -198 41 -226 47 l-52 10 -44 134 -44 134 45 1 c25 1 93 13 151 29 58 15&#10;112 28 120 28 8 1 35 -27 60 -61z m-1150 33 c0 -4 -9 -15 -20 -25 -19 -18 -20&#10;-17 -20 7 0 13 3 27 6 31 7 7 34 -2 34 -13z m215 10 c7 -12 -5 -60 -15 -60 -4&#10;0 -18 9 -31 20 -24 20 -24 20 -5 35 23 17 42 19 51 5z m-351 -42 c9 -12 16&#10;-28 16 -35 0 -11 -80 -73 -95 -73 -3 0 -5 24 -3 52 3 44 7 54 28 65 34 17 36&#10;16 54 -9z m-182 -69 l-4 -81 -56 -25 c-80 -36 -202 -73 -202 -62 0 5 21 59 47&#10;119 l46 110 41 1 c33 0 77 6 126 18 3 1 4 -35 2 -80z m713 15 c4 -31 5 -57 3&#10;-59 -10 -10 -108 46 -108 60 0 37 20 55 59 55 l39 0 7 -56z m312 -59 c51 -133&#10;51 -137 16 -125 -16 4 -70 21 -121 36 -51 15 -96 32 -101 38 -4 6 -11 44 -15&#10;84 -6 71 -6 72 16 67 13 -2 48 -1 78 4 30 5 62 8 70 7 9 -1 31 -43 57 -111z&#10;m-576 -23 c-11 -16 -25 -42 -31 -58 l-11 -28 -38 64 -38 65 35 31 35 30 35&#10;-38 34 -37 -21 -29z m-173 -39 c11 -27 32 -65 46 -85 l25 -37 -67 -74 c-37&#10;-40 -83 -88 -103 -105 l-37 -32 -7 27 c-9 35 -35 210 -35 234 0 9 17 28 38 40&#10;20 12 52 35 70 51 18 15 36 28 41 28 5 0 18 -21 29 -47z m356 -14 c47 -23 86&#10;-47 86 -53 0 -17 -38 -207 -50 -249 l-11 -38 -32 39 c-18 21 -62 74 -100 117&#10;l-67 78 21 31 c11 17 30 50 42 74 11 23 22 42 23 42 1 0 41 -19 88 -41z m-624&#10;-158 c6 -47 22 -119 36 -160 l24 -76 -23 -20 c-168 -145 -437 -358 -444 -352&#10;-3 4 2 37 11 74 8 37 32 156 51 263 51 279 45 263 102 277 27 6 89 26 138 45&#10;50 19 91 34 92 34 1 -1 7 -39 13 -85z m1046 9 c17 0 28 -8 35 -26 12 -33 99&#10;-549 99 -590 0 -10 -27 9 -72 51 -71 66 -106 95 -294 243 l-91 72 24 69 c12&#10;38 30 109 40 158 l17 89 109 -33 c60 -18 120 -33 133 -33z m282 -61 c59 -12&#10;185 -43 280 -70 95 -27 181 -49 191 -49 29 0 51 -11 51 -25 0 -23 -114 -167&#10;-224 -282 -121 -127 -292 -271 -306 -257 -8 9 -38 168 -81 424 -10 63 -26 148&#10;-34 188 -19 93 -19 106 1 98 8 -3 63 -15 122 -27z m-1733 -1 c-6 -26 -48 -248&#10;-96 -505 -18 -95 -37 -173 -42 -173 -17 0 -192 143 -280 229 -103 100 -263&#10;299 -251 310 12 11 242 72 434 115 242 54 242 54 235 24z m805 12 c0 -6 47&#10;-62 105 -125 58 -62 105 -117 105 -121 0 -15 -183 -492 -204 -532 l-14 -26&#10;-16 33 c-19 35 -134 351 -172 470 l-23 74 82 92 c46 50 92 103 103 118 20 28&#10;34 34 34 17z m-241 -477 c35 -98 88 -240 118 -315 29 -76 53 -149 53 -163 0&#10;-26 -1 -26 -57 -20 -195 21 -383 65 -526 124 -98 40 -181 83 -191 100 -8 12&#10;75 91 166 158 83 61 251 199 312 255 23 21 46 38 51 38 6 0 39 -80 74 -177z&#10;m-1319 148 c16 -30 12 -50 -15 -76 -61 -62 -139 2 -89 73 20 30 88 31 104 3z&#10;m1879 5 c7 -8 65 -54 129 -103 228 -172 382 -303 382 -326 0 -4 -46 -30 -102&#10;-57 -164 -79 -423 -149 -610 -165 -68 -6 -78 -5 -78 9 0 17 63 185 120 321 51&#10;122 120 306 120 321 0 18 24 18 39 0z m1346 -37 c13 -56 -51 -111 -91 -79 -17&#10;15 -19 81 -2 98 7 7 29 12 49 12 34 0 38 -3 44 -31z"/>
<path d="M5050 5642 c-19 -10 -48 -40 -64 -66 -54 -87 -33 -183 53 -241 l36&#10;-25 -3 -323 c-2 -177 -8 -338 -13 -358 -5 -19 -8 -60 -7 -90 2 -29 -1 -66 -6&#10;-81 -7 -24 -5 -27 26 -33 45 -11 98 -8 113 5 20 16 20 50 7 545 -7 222 -6 341&#10;0 344 29 10 79 67 94 106 41 107 -32 218 -152 231 -37 4 -58 1 -84 -14z m114&#10;-93 c28 -22 35 -66 14 -87 -7 -7 -27 -12 -45 -12 -55 0 -78 60 -41 108 15 18&#10;42 15 72 -9z"/>
<path d="M4029 5591 c-33 -33 -39 -45 -39 -81 0 -36 6 -48 39 -81 43 -43 80&#10;-50 131 -24 46 24 70 62 70 112 0 38 -5 50 -34 79 -29 29 -41 34 -81 34 -42 0&#10;-52 -5 -86 -39z"/>
<path d="M6094 5620 c-41 -16 -74 -68 -74 -117 0 -38 5 -50 34 -79 30 -30 40&#10;-34 86 -34 46 0 56 4 86 34 27 27 34 42 34 73 0 88 -89 154 -166 123z"/>
<path d="M6669 5372 c-75 -50 -458 -437 -490 -496 -4 -6 -4 -121 0 -255 l6&#10;-243 31 43 c18 25 78 98 134 163 56 65 109 131 118 145 9 14 58 82 110 150&#10;136 180 132 171 132 356 0 85 -3 155 -7 155 -5 0 -20 -8 -34 -18z"/>
<path d="M3218 5207 c-92 -94 -205 -220 -252 -278 l-84 -107 1 -241 c0 -133 1&#10;-241 2 -241 2 0 25 30 53 68 27 37 83 108 124 157 96 117 284 379 336 468 15&#10;27 13 339 -3 343 -5 2 -85 -74 -177 -169z"/>
<path d="M3530 5220 l0 -159 28 -33 c16 -18 46 -60 66 -92 21 -33 75 -105 119&#10;-161 45 -57 136 -173 202 -259 66 -85 122 -155 125 -156 3 0 5 107 5 239 l-1&#10;238 -79 99 c-113 141 -381 410 -427 429 l-38 15 0 -160z"/>
<path d="M6830 5194 l0 -167 38 -41 c21 -22 71 -88 111 -145 41 -57 119 -160&#10;175 -229 92 -114 183 -233 213 -279 9 -14 12 32 12 219 l1 237 -47 68 c-150&#10;221 -419 503 -477 503 l-26 0 0 -166z"/>
<path d="M4474 5300 c-37 -15 -74 -69 -74 -107 0 -29 8 -44 39 -73 l39 -37 -8&#10;-164 c-5 -90 -9 -275 -10 -411 l0 -248 58 0 57 0 -1 373 c0 271 -4 382 -13&#10;410 -13 37 -12 39 22 72 79 77 51 168 -58 188 -16 3 -39 2 -51 -3z"/>
<path d="M5662 5278 c-52 -56 -49 -115 9 -174 29 -29 30 -33 20 -75 -6 -25&#10;-12 -201 -13 -402 l-3 -358 58 3 58 3 -1 368 c0 307 -3 374 -15 398 -15 28&#10;-15 30 30 72 49 48 56 76 30 127 -31 60 -132 81 -173 38z"/>
<path d="M6668 4804 c-15 -27 -49 -79 -75 -114 -27 -36 -69 -94 -95 -130 -26&#10;-36 -72 -94 -103 -130 -31 -36 -81 -96 -111 -135 -29 -38 -67 -86 -83 -106&#10;l-30 -36 12 -212 12 -212 76 103 c42 57 134 180 206 273 71 94 152 209 181&#10;256 l52 87 -1 153 c0 85 -4 176 -7 203 l-7 50 -27 -50z"/>
<path d="M3537 4737 c-4 -45 -7 -137 -7 -204 0 -113 2 -123 24 -150 51 -62&#10;159 -207 193 -261 20 -31 86 -121 147 -200 61 -79 125 -161 141 -183 l30 -41&#10;11 204 c11 193 10 204 -8 228 -40 53 -239 321 -364 489 -72 97 -138 182 -146&#10;189 -13 10 -16 1 -21 -71z"/>
<path d="M3359 4738 c-22 -35 -80 -112 -129 -173 -50 -60 -149 -186 -220 -280&#10;l-129 -170 -1 -112 c0 -92 3 -113 14 -113 21 0 232 240 304 346 53 77 124 154&#10;196 212 14 11 16 38 16 182 0 94 -2 170 -5 170 -3 0 -23 -28 -46 -62z"/>
<path d="M6836 4778 c-3 -13 -6 -91 -6 -174 l0 -152 30 -12 c37 -15 115 -99&#10;186 -200 57 -82 273 -335 303 -356 19 -13 19 -10 23 99 4 105 2 114 -19 142&#10;-13 17 -49 66 -80 110 -77 109 -389 518 -428 563 -1 1 -5 -8 -9 -20z"/>
<path d="M3382 4273 c-11 -10 -44 -50 -74 -88 -56 -74 -309 -365 -349 -402&#10;-13 -12 -36 -26 -50 -32 -25 -9 -26 -12 -19 -53 20 -104 84 -335 133 -483 87&#10;-258 195 -518 370 -888 l22 -47 0 1005 c0 553 -3 1005 -6 1005 -4 0 -16 -8&#10;-27 -17z"/>
<path d="M6825 3275 l0 -1014 34 67 c19 37 60 126 91 197 32 72 89 200 127&#10;285 39 85 94 218 123 295 56 151 160 542 160 603 0 33 -6 41 -50 70 -59 40&#10;-189 174 -250 257 -45 62 -219 255 -229 255 -3 0 -6 -457 -6 -1015z"/>
<path d="M5025 4241 c-26 -16 -89 -85 -337 -369 -124 -143 -168 -198 -193&#10;-244 l-25 -46 2 -242 3 -242 67 98 c37 55 97 135 133 179 81 96 298 397 347&#10;480 41 70 49 134 39 302 l-6 103 -30 -19z"/>
<path d="M5190 4068 l0 -192 30 -31 c16 -17 49 -58 72 -92 120 -175 258 -362&#10;455 -621 l33 -44 0 234 c0 270 1 265 -101 400 -158 211 -451 538 -481 538 -4&#10;0 -8 -86 -8 -192z"/>
<path d="M6673 4168 c-11 -13 -64 -88 -118 -168 -54 -80 -117 -170 -140 -200&#10;-23 -30 -66 -93 -94 -140 -29 -47 -66 -99 -82 -116 l-29 -30 61 -185 c33 -101&#10;92 -260 129 -354 66 -163 241 -559 291 -657 l24 -47 -3 952 c-1 523 -6 955&#10;-10 959 -5 5 -17 -2 -29 -14z"/>
<path d="M3530 4153 c-1 -10 0 -407 2 -883 1 -476 2 -890 2 -921 0 -55 -26&#10;-117 -61 -146 -9 -7 -12 -19 -8 -32 13 -41 16 -35 115 194 26 61 86 198 134&#10;305 147 328 202 468 256 644 29 93 57 177 63 187 10 16 5 25 -30 61 -22 24&#10;-61 71 -84 105 -24 33 -69 94 -100 135 -30 40 -93 127 -139 193 -112 162 -149&#10;201 -150 158z"/>
<path d="M5008 3612 c-79 -123 -196 -291 -258 -369 -36 -44 -96 -128 -135&#10;-184 -38 -57 -86 -122 -106 -144 l-35 -40 7 -170 c4 -93 8 -189 8 -212 1 -44&#10;16 -57 28 -25 9 24 139 216 172 255 59 68 246 333 283 400 21 39 50 86 63 103&#10;25 32 25 35 25 238 0 113 -3 206 -7 206 -5 -1 -24 -27 -45 -58z"/>
<path d="M5190 3462 l0 -201 102 -158 c56 -87 126 -198 156 -248 30 -49 107&#10;-160 171 -246 64 -86 121 -164 127 -174 8 -15 13 18 22 141 22 301 24 283 -28&#10;341 -25 28 -70 86 -100 129 -29 44 -95 133 -145 199 -50 66 -130 179 -178 251&#10;-135 203 -127 205 -127 -34z"/>
<path d="M5183 1940 c-2 -1129 -1 -1106 -48 -1124 -27 -10 -32 -7 -48 27 -14&#10;29 -17 158 -21 1086 -3 579 -7 1055 -9 1058 -18 17 -82 -64 -170 -211 -65&#10;-110 -187 -290 -296 -436 -46 -62 -69 -100 -64 -110 3 -8 37 -105 74 -215 80&#10;-236 237 -631 434 -1090 59 -136 84 -205 85 -227 0 -38 18 -15 37 50 12 37 35&#10;99 52 137 16 39 64 153 104 255 41 102 96 235 122 295 112 260 191 467 255&#10;670 18 55 36 104 40 109 5 5 -12 35 -38 66 -50 62 -138 190 -339 495 -123 187&#10;-150 225 -162 225 -3 0 -7 -477 -8 -1060z"/>
<path d="M3999 2501 c-17 -18 -29 -40 -29 -56 0 -39 50 -85 92 -85 39 0 82 38&#10;93 80 10 41 -48 90 -106 90 -11 0 -34 -13 -50 -29z"/>
<path d="M6147 2502 c-40 -42 -45 -85 -14 -116 50 -50 135 -23 153 48 11 46&#10;-38 96 -95 96 -9 0 -29 -13 -44 -28z"/>
<path d="M3985 2157 c-44 -44 -46 -78 -6 -118 40 -39 82 -39 123 1 36 36 33&#10;69 -10 111 -45 44 -67 46 -107 6z"/>
<path d="M6770 2174 c0 -8 5 -12 10 -9 6 3 10 10 10 16 0 5 -4 9 -10 9 -5 0&#10;-10 -7 -10 -16z"/>
<path d="M6155 2155 c-35 -34 -34 -83 3 -118 37 -35 71 -34 107 3 75 79 -33&#10;193 -110 115z"/>
<path d="M3419 1851 c-36 -36 -37 -60 -3 -100 32 -39 80 -42 111 -8 37 39 37&#10;62 2 101 -39 45 -70 46 -110 7z"/>
<path d="M6729 1851 c-17 -18 -29 -40 -29 -56 0 -33 50 -85 82 -85 28 0 88 57&#10;88 84 0 28 -19 55 -50 71 -41 21 -58 19 -91 -14z"/>
</g>
</svg>
