<?xml version="1.0" standalone="no"?>
<!DOCTYPE svg PUBLIC "-//W3C//DTD SVG 20010904//EN"
 "http://www.w3.org/TR/2001/REC-SVG-20010904/DTD/svg10.dtd">
<svg version="1.0" xmlns="http://www.w3.org/2000/svg"
 width="100.000000pt" height="99.000000pt" viewBox="0 0 100.000000 99.000000"
 preserveAspectRatio="xMidYMid meet">

<g transform="translate(0.000000,99.000000) scale(0.100000,-0.100000)"
fill="#000000" stroke="none">
<path d="M470 914 c-58 -33 -93 -67 -137 -132 -47 -71 -75 -155 -75 -223 l0
-56 -54 -17 c-71 -22 -134 -71 -161 -126 -29 -56 -29 -78 0 -121 35 -52 108
-77 254 -85 l121 -7 -15 -34 c-34 -83 27 -107 117 -47 57 39 176 163 196 205
11 22 26 39 36 39 24 0 78 48 78 70 0 9 34 50 75 89 45 43 75 79 75 91 0 20
-1 20 -32 4 -18 -9 -57 -39 -85 -67 -50 -48 -76 -58 -34 -13 42 45 100 194 85
218 -3 4 -13 8 -23 8 -14 0 -20 -11 -25 -42 -9 -55 -62 -152 -100 -185 l-31
-26 -6 149 c-8 179 -25 242 -79 296 -33 34 -43 38 -86 38 -34 0 -63 -8 -94
-26z m138 -30 c54 -37 75 -135 74 -344 -1 -134 -3 -156 -18 -165 -9 -5 -31
-20 -50 -32 l-33 -22 -132 95 c-73 52 -137 100 -141 107 -13 20 -9 62 10 125
52 165 209 293 290 236z m-232 -472 c130 -91 164 -116 164 -123 0 -3 -21 -26
-46 -49 l-46 -42 -132 5 c-141 5 -190 15 -224 47 -41 39 -20 111 43 150 46 28
124 59 151 60 11 0 52 -22 90 -48z m399 -22 c0 -18 -6 -26 -21 -28 -23 -3 -37
18 -27 44 10 25 48 13 48 -16z m-85 -68 c0 -50 -222 -264 -247 -238 -14 14 98
148 169 201 59 44 78 53 78 37z"/>
<path d="M412 634 c6 -76 29 -124 91 -185 48 -47 50 -48 64 -29 12 18 10 23
-27 57 -53 47 -80 100 -80 158 0 25 -4 45 -9 45 -5 0 -17 3 -26 7 -16 5 -17 0
-13 -53z"/>
</g>
</svg>
